<svg width="82" height="80" xmlns="http://www.w3.org/2000/svg">
 <style type="text/css">.st0{fill:none;stroke:#000000;stroke-linecap:round;stroke-linejoin:round;stroke-miterlimit:10;}</style>

 <g>
  <title>background</title>
  <rect fill="none" id="canvas_background" height="82" width="84" y="-1" x="-1"/>
 </g>
 <g>
  <title>Layer 1</title>
  <g id="svg_1">
   <path fill="#ffaaff" id="svg_2" d="m58.80001,17.90001l1.8,1.9c1.2,-1.2 2.4,-2.3 3.4,-3.4l-1.8,-1.8c-1,1.1 -2.2,2.1 -3.4,3.3z"/>
   <path fill="#ffaaff" id="svg_3" d="m47.50001,28.60001l2.2,2.2c1.1,-1.1 2.3,-2.3 3.5,-3.5l-2,-2.1c-1.4,1.2 -2.6,2.3 -3.7,3.4z"/>
   <path fill="#ffaaff" id="svg_4" d="m51.80001,24.50001l2,2.1c0.8,-0.8 1.7,-1.7 2.5,-2.5l-1.9,-2c-0.9,0.8 -1.7,1.6 -2.6,2.4z"/>
   <path fill="#ffaaff" id="svg_5" d="m55.10001,21.40001l1.9,2c1,-1 2,-1.9 2.9,-2.9l-1.8,-2c-1,1 -2,1.9 -3,2.9z"/>
   <path fill="#ffaaff" id="svg_6" d="m39.90001,35.70001l2.4,2.4c0.3,-0.3 0.7,-0.7 1.1,-1.1l-2.4,-2.3c-0.4,0.4 -0.8,0.7 -1.1,1z"/>
   <path fill="#ffaaff" id="svg_7" d="m43.80001,32.10001l2.3,2.2c0.9,-0.9 1.8,-1.8 2.8,-2.8l-2.2,-2.2c-1,1 -2,1.9 -2.9,2.8z"/>
   <path fill="#ffaaff" id="svg_8" d="m41.80001,34.00001l2.3,2.3c0.4,-0.4 0.9,-0.9 1.3,-1.3l-2.4,-2.2c-0.4,0.4 -0.8,0.8 -1.2,1.2z"/>
   <path fill="#ffaaff" id="svg_9" d="m62.90001,14.00001l1.8,1.7c0.7,-0.6 1.2,-1.2 1.8,-1.8l-1.7,-1.8c-0.5,0.6 -1.2,1.2 -1.9,1.9z"/>
   <path fill="#ffaaff" id="svg_10" d="m65.60001,11.50001l1.7,1.8c0.7,-0.7 1.3,-1.3 1.6,-1.6l-1.8,-1.7c-0.3,0.3 -0.9,0.9 -1.5,1.5z"/>
   <path fill="#ffaaff" id="svg_11" d="m68.10001,7.20001c0,0.7 -0.2,1.5 -0.4,2l1.9,1.9c1.2,-0.9 2.5,-1.5 3.9,-1.7c1.4,-2.6 4.3,-5.3 6.7,-6.7c-0.2,-0.7 -0.1,-1.6 0.1,-2.3c-2.7,1.5 -10,5.6 -12.2,6.8z"/>
   <polygon fill="#ffaaff" id="svg_12" points="37.500006675720215,43.000006675720215 39.90000820159912,40.500006675720215 37.40000820159912,38.10000514984131 35.000006675720215,40.40000820159912 "/>
   <path fill="#ffaaff" id="svg_13" d="m38.20001,43.70001l0.4,0.5c0.2,0.2 0.2,0.5 0,0.7l-3,2.9c-0.1,0.1 -0.2,0.1 -0.3,0.1c-0.1,0 -0.3,0 -0.4,-0.1l-4.8,-4.9c-0.1,-0.2 -0.1,-0.3 -0.1,-0.5c0,-0.1 0.1,-0.3 0.2,-0.4l2.9,-2.8c0.2,-0.2 0.5,-0.2 0.7,0l0.6,0.5l2.7,-2.7c-0.1,-0.1 -0.3,-0.1 -0.4,-0.2c-2.8,1.5 -27.8,14.4 -39.4,20.5c3.7,-0.5 7.1,-0.7 10.1,-0.7c7.4,0 12.1,1.1 12.1,1.2c0.2,0 0.3,0.2 0.4,0.4c0,0.1 0.9,5.9 0.9,11.8c0,3.6 -0.5,7.8 -0.9,10.5c4.6,-8.3 18.9,-34.6 21.2,-38.9c-0.1,-0.2 -0.2,-0.4 -0.3,-0.6l-2.6,2.7zm-15.1,20.2c0,0.2 -0.2,0.4 -0.5,0.4c0,0 0,0 0,0c-0.2,0 -0.5,-0.2 -0.5,-0.4l-1.1,-7.4l-7.5,-1.2c-0.2,0 -0.4,-0.3 -0.4,-0.5c0,-0.3 0.2,-0.5 0.5,-0.5l10.2,-1c0.2,0 0.3,0 0.4,0.1c0.1,0.1 0.2,0.3 0.1,0.4l-1.2,10.1zm9.3,-13l-2.1,2.2c-0.2,0.2 -0.4,0.3 -0.7,0.3c0,0 0,0 0,0c-0.3,0 -0.5,-0.1 -0.7,-0.3l-4.2,-4.1c-0.2,-0.2 -0.3,-0.4 -0.3,-0.7c0,-0.3 0.1,-0.5 0.3,-0.7l2.1,-2c0.4,-0.4 1,-0.4 1.4,0l4.2,4.1c0.4,0.2 0.4,0.9 0,1.2z"/>
   <polygon fill="#ffaaff" id="svg_14" points="25.40000820159912,48.30000591278076 29.60000514984131,52.40000820159912 31.700007438659668,50.30000591278076 27.500006675720215,46.20000743865967 "/>
   <polygon fill="#ffaaff" id="svg_15" points="34.000006675720215,40.80000591278076 33.40000820159912,40.30000591278076 31.200007438659668,42.40000820159912 35.30000591278076,46.60000514984131 37.60000514984131,44.500006675720215 37.20000743865967,44.000006675720215 "/>
   <path fill="#ffaaff" id="svg_16" d="m38.70001,36.90001l-0.5,0.5l2.4,2.5l0.2,-0.3c0,0 0,0 0,0s0,0 0,0c0.1,-0.1 0.4,-0.4 0.7,-0.7l-2.4,-2.4c-0.2,0.2 -0.4,0.3 -0.4,0.4z"/>
  </g>
 </g>
</svg>